<?xml version="1.0" standalone="no"?>
<!DOCTYPE svg PUBLIC "-//W3C//DTD SVG 20010904//EN"
 "http://www.w3.org/TR/2001/REC-SVG-20010904/DTD/svg10.dtd">
<svg version="1.0" xmlns="http://www.w3.org/2000/svg"
 width="700.000000pt" height="700.000000pt" viewBox="0 0 700.000000 700.000000"
 preserveAspectRatio="xMidYMid meet">
<metadata>
Created by potrace 1.11, written by Peter Selinger 2001-2013
</metadata>
<g transform="translate(0.000000,700.000000) scale(0.100000,-0.100000)"
fill="#000000" stroke="none">
<path d="M3315 6606 c-33 -8 -91 -26 -130 -40 -276 -104 -495 -371 -546 -662
-7 -40 -10 -120 -7 -198 4 -114 9 -144 38 -228 98 -293 351 -520 647 -583 87
-19 279 -19 365 -1 277 59 523 266 628 530 50 125 62 201 58 361 -4 124 -8
151 -37 235 -47 140 -109 238 -221 350 -110 109 -194 161 -340 211 -88 30
-107 33 -245 35 -102 3 -169 -1 -210 -10z"/>
<path d="M5565 4356 c-33 -8 -91 -26 -130 -40 -276 -104 -495 -371 -546 -662
-7 -40 -10 -120 -7 -198 4 -114 9 -144 38 -228 98 -293 351 -520 647 -583 87
-19 279 -19 365 -1 277 59 523 266 628 530 50 125 62 201 58 361 -4 124 -8
151 -37 235 -47 140 -109 238 -221 350 -110 109 -194 161 -340 211 -88 30
-107 33 -245 35 -102 3 -169 -1 -210 -10z"/>
<path d="M1065 2106 c-33 -8 -91 -26 -130 -40 -276 -104 -495 -371 -546 -662
-7 -40 -10 -120 -7 -198 4 -114 9 -144 38 -228 98 -293 351 -520 647 -583 87
-19 279 -19 365 -1 277 59 523 266 628 530 50 125 62 201 58 361 -4 124 -8
151 -37 235 -47 140 -109 238 -221 350 -110 109 -194 161 -340 211 -88 30
-107 33 -245 35 -102 3 -169 -1 -210 -10z"/>
<path d="M3315 2106 c-33 -8 -91 -26 -130 -40 -276 -104 -495 -371 -546 -662
-7 -40 -10 -120 -7 -198 4 -114 9 -144 38 -228 98 -293 351 -520 647 -583 87
-19 279 -19 365 -1 277 59 523 266 628 530 50 125 62 201 58 361 -4 124 -8
151 -37 235 -47 140 -109 238 -221 350 -110 109 -194 161 -340 211 -88 30
-107 33 -245 35 -102 3 -169 -1 -210 -10z"/>
<path d="M5565 2106 c-33 -8 -91 -26 -130 -40 -276 -104 -495 -371 -546 -662
-7 -40 -10 -120 -7 -198 4 -114 9 -144 38 -228 98 -293 351 -520 647 -583 87
-19 279 -19 365 -1 277 59 523 266 628 530 50 125 62 201 58 361 -4 124 -8
151 -37 235 -47 140 -109 238 -221 350 -110 109 -194 161 -340 211 -88 30
-107 33 -245 35 -102 3 -169 -1 -210 -10z"/>
</g>
</svg>
